<svg xmlns="http://www.w3.org/2000/svg" viewBox="0 0 512 512">
  <defs>
    <!-- Subtle metallic gradient for silver effect -->
    <linearGradient id="silverGradient" x1="0%" y1="0%" x2="100%" y2="100%">
      <stop offset="0%" stop-color="#a0a8b0"/>
      <stop offset="50%" stop-color="#8a929a"/>
      <stop offset="100%" stop-color="#6a727a"/>
    </linearGradient>
  </defs>
  
  <!-- Square background - deeper dark, subtle rounded corners -->
  <rect x="32" y="32" width="448" height="448" rx="8" ry="8" fill="#1a1d23"/>
  
  <!-- Corner brackets - tight radius, balanced arms -->
  <!-- Top-left arc -->
  <path d="M75 172 L75 115 A40 40 0 0 1 115 75 L172 75" fill="none" stroke="url(#silverGradient)" stroke-width="24" stroke-linecap="square"/>
  
  <!-- Top-right arc -->
  <path d="M340 75 L397 75 A40 40 0 0 1 437 115 L437 172" fill="none" stroke="url(#silverGradient)" stroke-width="24" stroke-linecap="square"/>
  
  <!-- Bottom-left arc -->
  <path d="M75 340 L75 397 A40 40 0 0 0 115 437 L172 437" fill="none" stroke="url(#silverGradient)" stroke-width="24" stroke-linecap="square"/>
  
  <!-- Bottom-right arc -->
  <path d="M340 437 L397 437 A40 40 0 0 0 437 397 L437 340" fill="none" stroke="url(#silverGradient)" stroke-width="24" stroke-linecap="square"/>
  
  <!-- Fused cursor-chevron: centered (188 to 323, center=255.5 ≈ 256) -->
  <path d="M188 150 
           L313 249
           Q323 256 313 263
           L188 362
           L188 312
           L258 256
           L188 200
           Z" 
        fill="url(#silverGradient)"/>
</svg>
